<svg xmlns="http://www.w3.org/2000/svg" width="24" height="24" viewBox="0 0 24 24">
    <g fill="none" fill-rule="evenodd">
        <path d="M0 0h24v24H0z"/>
        <path fill="#2E3035" d="M20.385 5.81c.921 0 1.667.746 1.667 1.666v9.477c0 .852-.638 1.554-1.463 1.655l.005-.125c0-1.946-1.6-3.523-3.573-3.523-1.973 0-3.573 1.577-3.573 3.523l.003.138-2.353-.001-.161-.009.005-.128c0-1.189-.596-2.24-1.51-2.878L9.43 7.476c0-.92.746-1.666 1.667-1.666h9.287zM6.615 9.47c.683 0 1.237.554 1.237 1.238v4.284a3.656 3.656 0 0 0-.483-.032c-1.89 0-3.439 1.448-3.564 3.282l-.008.24c0 .047 0 .093.002.139l-.62-.001a1.238 1.238 0 0 1-1.239-1.238v-4.074c0-.27.089-.534.252-.749l1.974-2.6c.234-.308.599-.49.986-.49h1.462z"/>
        <path fill="#2E3035" d="M7.4 16.393c-1.225 0-2.218.98-2.218 2.188 0 1.208.993 2.187 2.219 2.187 1.225 0 2.218-.98 2.218-2.187 0-1.208-.993-2.188-2.218-2.188zM17.021 16.295a2.187 2.187 0 1 0 0 4.375 2.187 2.187 0 0 0 0-4.375z"/>
    </g>
</svg>
