<svg xmlns="http://www.w3.org/2000/svg" xmlns:xlink="http://www.w3.org/1999/xlink" width="72" height="72" viewBox="0 0 72 72">
    <defs>
        <path id="a" d="M0 0h72v72H0z"/>
    </defs>
    <g fill="none" fill-rule="evenodd">
        <mask id="b" fill="#fff">
            <use xlink:href="#a"/>
        </mask>
        <path fill="#EFF7FF" d="M0 0l72 36L0 72z" mask="url(#b)"/>
        <g mask="url(#b)">
            <g transform="rotate(16 40.925 120.263)">
                <path fill="#2E3035" d="M16.35 2.576C8.794 4.05-.811 12.07.368 23.541c.74 7.203 7.527 7.692 10.02 15.325 1.063 3.252 9.255 6.824 24.577 10.716l-.91 8.938 7.682-15.078.138-25.51C29.895 6.712 21.387 1.594 16.35 2.576z"/>
                <path fill="#055CF5" d="M54.509 54.898c-13.956 5.39-22.873 9.633-26.75 12.726-3.876 3.093-7.086 7.492-9.63 13.198l41-13.03-4.62-12.894z"/>
                <path fill="#F2CCAB" d="M50.56 58.967c-3.036-5.192-4.571-9.729-4.606-13.61-.015-1.796-.25-3.471-.002-4.894a4.21 4.21 0 0 0 .247-1.02c.09-.925.13-1.852.144-2.78.004-.124.005-.249.007-.373 0-.155.002-.31 0-.465a23.363 23.363 0 0 0-.05-1.513c-.02-.323-.055-.645-.086-.966-.237-2.566-.793-5.088-1.758-7.489-2.32-5.777-6.746-12.289-15.062-13.625 0 0-14.535-6.135-21.706 6.13-1.448 2.474-2.656 5.951-2.566 9.246.122 4.468 2.04 7.155 2.529 9.55.848 4.163-2.583 6.822-1.848 7.906.736 1.084 3.193 1.659 4.276 2.275 1.363.775 4.055 7.35 7.949 9.673 1.975 1.177 5.985.028 12.03-3.45 1.295 3.883 2.128 6.786 2.498 8.707.37 1.922.37 4.467.002 7.636 3.631-1.144 6.865-2.667 9.7-4.57a84.821 84.821 0 0 0 8.303-6.368z"/>
                <path fill="#2E3035" d="M21.923 1.006c4.938-.69 11.582-.04 14.897.977 5.236 1.605 6.225 4.827 9.942 10.486 4.048 6.163 7.414 11.745 10.1 16.749L46.03 45.792c-3.273-2.843-6.307-6.068-9.101-9.676C34.134 32.51 23.98 26.202 6.47 17.195c-1.519-2.61-1.464-4.796.164-6.556 2.442-2.641 2.55-7.851 15.288-9.633z"/>
                <g opacity=".6">
                    <path stroke="#6A5846" stroke-linecap="round" stroke-linejoin="round" stroke-width="1.6" d="M9.982 31.064c1.563-.839 3.317-1.006 5.264-.503"/>
                    <path fill="#6A5846" d="M13.836 40.059c-.678.197-1.631-.639-1.915-1.635-.283-.997.051-2.17.866-2.412.814-.244 1.708.474 1.997 1.603.195 1.14-.27 2.246-.948 2.444z"/>
                    <path stroke="#6A5846" stroke-linecap="round" stroke-linejoin="round" stroke-width="1.6" d="M15.303 49.553s3.014.594 5.829-2.61"/>
                </g>
                <circle cx="36.035" cy="34.006" r="7" fill="#FFF"/>
            </g>
            <path fill="#FFF" d="M68.155 4.593c.608.298 1.39.7 2.347 1.205.957.505 2.223 1.268 3.797 2.289L65.4 32.537l-6.578-2.394 9.333-25.55zM60.495 37.488l.868 1.034L47.3 50.323l-.868-1.034z"/>
        </g>
    </g>
</svg>
